<mxfile host="app.diagrams.net" modified="2023-06-02T14:57:48.353Z" agent="Mozilla/5.0 (Macintosh; Intel Mac OS X 10_15_7) AppleWebKit/537.36 (KHTML, like Gecko) Chrome/113.0.0.0 Safari/537.36" etag="7i2PPVXtVFGS6mEaemie" version="21.3.7" type="github">
  <diagram id="prtHgNgQTEPvFCAcTncT" name="Page-1">
    <mxGraphModel dx="1562" dy="890" grid="1" gridSize="10" guides="1" tooltips="1" connect="1" arrows="1" fold="1" page="1" pageScale="1" pageWidth="827" pageHeight="1169" math="0" shadow="0">
      <root>
        <mxCell id="0" />
        <mxCell id="1" parent="0" />
        <mxCell id="XktvU1xeqBwV3OAODEVz-1" value="" style="swimlane;startSize=0;" vertex="1" parent="1">
          <mxGeometry x="20" y="90" width="770" height="630" as="geometry" />
        </mxCell>
        <mxCell id="XktvU1xeqBwV3OAODEVz-2" value="FEATURE -&amp;nbsp; ( BANK RECONCILIATION)&lt;br&gt;As a user I need to match the cash balances on the balance sheet to the corresponding amount on bank statement" style="rounded=0;whiteSpace=wrap;html=1;fillColor=#6d8764;fontColor=#ffffff;strokeColor=#3A5431;fontFamily=Tahoma;" vertex="1" parent="XktvU1xeqBwV3OAODEVz-1">
          <mxGeometry x="230" y="20" width="320" height="60" as="geometry" />
        </mxCell>
        <mxCell id="XktvU1xeqBwV3OAODEVz-4" value="EPIC -AUTO RECONCILIARTION&amp;nbsp;" style="rounded=0;whiteSpace=wrap;html=1;fillColor=#647687;fontColor=#ffffff;strokeColor=#314354;" vertex="1" parent="XktvU1xeqBwV3OAODEVz-1">
          <mxGeometry x="394" y="110" width="320" height="60" as="geometry" />
        </mxCell>
        <mxCell id="XktvU1xeqBwV3OAODEVz-5" value="EPIC - MANUAL RECONCILIARTION&amp;nbsp;&lt;br style=&quot;border-color: var(--border-color); font-family: Tahoma;&quot;&gt;&lt;span style=&quot;font-family: Tahoma;&quot;&gt;As a user, I need to manually reconcile...................&lt;/span&gt;" style="rounded=0;whiteSpace=wrap;html=1;fillColor=#647687;fontColor=#ffffff;strokeColor=#314354;" vertex="1" parent="XktvU1xeqBwV3OAODEVz-1">
          <mxGeometry x="60" y="110" width="320" height="60" as="geometry" />
        </mxCell>
        <mxCell id="XktvU1xeqBwV3OAODEVz-7" value="" style="endArrow=none;html=1;rounded=0;entryX=0.5;entryY=1;entryDx=0;entryDy=0;exitX=0.378;exitY=0;exitDx=0;exitDy=0;exitPerimeter=0;" edge="1" parent="XktvU1xeqBwV3OAODEVz-1" source="XktvU1xeqBwV3OAODEVz-5" target="XktvU1xeqBwV3OAODEVz-2">
          <mxGeometry width="50" height="50" relative="1" as="geometry">
            <mxPoint x="370" y="400" as="sourcePoint" />
            <mxPoint x="420" y="350" as="targetPoint" />
            <Array as="points">
              <mxPoint x="180" y="90" />
            </Array>
          </mxGeometry>
        </mxCell>
        <mxCell id="XktvU1xeqBwV3OAODEVz-8" value="" style="endArrow=none;html=1;rounded=0;entryX=0.5;entryY=1;entryDx=0;entryDy=0;exitX=0.581;exitY=0;exitDx=0;exitDy=0;exitPerimeter=0;" edge="1" parent="XktvU1xeqBwV3OAODEVz-1" source="XktvU1xeqBwV3OAODEVz-4" target="XktvU1xeqBwV3OAODEVz-2">
          <mxGeometry width="50" height="50" relative="1" as="geometry">
            <mxPoint x="191" y="120" as="sourcePoint" />
            <mxPoint x="400" y="90" as="targetPoint" />
            <Array as="points">
              <mxPoint x="580" y="90" />
            </Array>
          </mxGeometry>
        </mxCell>
        <mxCell id="XktvU1xeqBwV3OAODEVz-9" value="USER STORY -&amp;nbsp;" style="rounded=0;whiteSpace=wrap;html=1;fillColor=#b1ddf0;strokeColor=#10739e;" vertex="1" parent="XktvU1xeqBwV3OAODEVz-1">
          <mxGeometry x="20" y="230" width="170" height="60" as="geometry" />
        </mxCell>
        <mxCell id="XktvU1xeqBwV3OAODEVz-10" value="USER STORY -&amp;nbsp;" style="rounded=0;whiteSpace=wrap;html=1;fillColor=#b1ddf0;strokeColor=#10739e;" vertex="1" parent="XktvU1xeqBwV3OAODEVz-1">
          <mxGeometry x="200" y="230" width="170" height="60" as="geometry" />
        </mxCell>
        <mxCell id="XktvU1xeqBwV3OAODEVz-12" value="USER STORY -&amp;nbsp;" style="rounded=0;whiteSpace=wrap;html=1;fillColor=#b1ddf0;strokeColor=#10739e;" vertex="1" parent="XktvU1xeqBwV3OAODEVz-1">
          <mxGeometry x="393.5" y="230" width="170" height="60" as="geometry" />
        </mxCell>
        <mxCell id="XktvU1xeqBwV3OAODEVz-11" value="&lt;span style=&quot;font-weight: normal;&quot;&gt;USER STORY&amp;nbsp;&lt;br&gt;As a user I want to load the list of Items that are not accounted for...&lt;br&gt;&lt;/span&gt;" style="rounded=0;whiteSpace=wrap;html=1;fillColor=#b1ddf0;strokeColor=#10739e;fontStyle=1" vertex="1" parent="XktvU1xeqBwV3OAODEVz-1">
          <mxGeometry x="580" y="230" width="170" height="60" as="geometry" />
        </mxCell>
        <mxCell id="XktvU1xeqBwV3OAODEVz-13" value="" style="endArrow=none;html=1;rounded=0;entryX=0.5;entryY=1;entryDx=0;entryDy=0;" edge="1" parent="XktvU1xeqBwV3OAODEVz-1" target="XktvU1xeqBwV3OAODEVz-5">
          <mxGeometry width="50" height="50" relative="1" as="geometry">
            <mxPoint x="100" y="230" as="sourcePoint" />
            <mxPoint x="420" y="350" as="targetPoint" />
            <Array as="points">
              <mxPoint x="100" y="190" />
              <mxPoint x="220" y="190" />
            </Array>
          </mxGeometry>
        </mxCell>
        <mxCell id="XktvU1xeqBwV3OAODEVz-17" value="Tasks" style="swimlane;fontStyle=0;childLayout=stackLayout;horizontal=1;startSize=30;horizontalStack=0;resizeParent=1;resizeParentMax=0;resizeLast=0;collapsible=1;marginBottom=0;whiteSpace=wrap;html=1;fillColor=#fad9d5;strokeColor=#ae4132;" vertex="1" parent="XktvU1xeqBwV3OAODEVz-1">
          <mxGeometry x="240" y="330" width="140" height="120" as="geometry" />
        </mxCell>
        <mxCell id="XktvU1xeqBwV3OAODEVz-18" value="Seed database" style="text;strokeColor=none;fillColor=none;align=left;verticalAlign=middle;spacingLeft=4;spacingRight=4;overflow=hidden;points=[[0,0.5],[1,0.5]];portConstraint=eastwest;rotatable=0;whiteSpace=wrap;html=1;" vertex="1" parent="XktvU1xeqBwV3OAODEVz-17">
          <mxGeometry y="30" width="140" height="30" as="geometry" />
        </mxCell>
        <mxCell id="XktvU1xeqBwV3OAODEVz-19" value="Function GETLISTX" style="text;strokeColor=none;fillColor=none;align=left;verticalAlign=middle;spacingLeft=4;spacingRight=4;overflow=hidden;points=[[0,0.5],[1,0.5]];portConstraint=eastwest;rotatable=0;whiteSpace=wrap;html=1;" vertex="1" parent="XktvU1xeqBwV3OAODEVz-17">
          <mxGeometry y="60" width="140" height="30" as="geometry" />
        </mxCell>
        <mxCell id="XktvU1xeqBwV3OAODEVz-20" value="Create UI" style="text;strokeColor=none;fillColor=none;align=left;verticalAlign=middle;spacingLeft=4;spacingRight=4;overflow=hidden;points=[[0,0.5],[1,0.5]];portConstraint=eastwest;rotatable=0;whiteSpace=wrap;html=1;" vertex="1" parent="XktvU1xeqBwV3OAODEVz-17">
          <mxGeometry y="90" width="140" height="30" as="geometry" />
        </mxCell>
        <mxCell id="XktvU1xeqBwV3OAODEVz-25" value="&amp;nbsp;Test Cases" style="swimlane;fontStyle=0;childLayout=stackLayout;horizontal=1;startSize=30;horizontalStack=0;resizeParent=1;resizeParentMax=0;resizeLast=0;collapsible=1;marginBottom=0;whiteSpace=wrap;html=1;fillColor=#fad9d5;strokeColor=#ae4132;" vertex="1" parent="XktvU1xeqBwV3OAODEVz-1">
          <mxGeometry x="595" y="330" width="140" height="120" as="geometry" />
        </mxCell>
        <mxCell id="XktvU1xeqBwV3OAODEVz-26" value="Test Case 1" style="text;strokeColor=none;fillColor=none;align=left;verticalAlign=middle;spacingLeft=4;spacingRight=4;overflow=hidden;points=[[0,0.5],[1,0.5]];portConstraint=eastwest;rotatable=0;whiteSpace=wrap;html=1;" vertex="1" parent="XktvU1xeqBwV3OAODEVz-25">
          <mxGeometry y="30" width="140" height="30" as="geometry" />
        </mxCell>
        <mxCell id="XktvU1xeqBwV3OAODEVz-27" value="Test Case 2" style="text;strokeColor=none;fillColor=none;align=left;verticalAlign=middle;spacingLeft=4;spacingRight=4;overflow=hidden;points=[[0,0.5],[1,0.5]];portConstraint=eastwest;rotatable=0;whiteSpace=wrap;html=1;" vertex="1" parent="XktvU1xeqBwV3OAODEVz-25">
          <mxGeometry y="60" width="140" height="30" as="geometry" />
        </mxCell>
        <mxCell id="XktvU1xeqBwV3OAODEVz-28" value="Test Case 3" style="text;strokeColor=none;fillColor=none;align=left;verticalAlign=middle;spacingLeft=4;spacingRight=4;overflow=hidden;points=[[0,0.5],[1,0.5]];portConstraint=eastwest;rotatable=0;whiteSpace=wrap;html=1;" vertex="1" parent="XktvU1xeqBwV3OAODEVz-25">
          <mxGeometry y="90" width="140" height="30" as="geometry" />
        </mxCell>
        <mxCell id="XktvU1xeqBwV3OAODEVz-30" value="&lt;span style=&quot;font-weight: normal;&quot;&gt;Acceptance Criteria&lt;/span&gt;" style="swimlane;whiteSpace=wrap;html=1;fillColor=#fad9d5;strokeColor=#ae4132;startSize=30;" vertex="1" parent="XktvU1xeqBwV3OAODEVz-1">
          <mxGeometry x="400" y="330" width="170" height="230" as="geometry" />
        </mxCell>
        <mxCell id="XktvU1xeqBwV3OAODEVz-46" value="Its done when:" style="swimlane;fontStyle=0;childLayout=stackLayout;horizontal=1;startSize=26;fillColor=none;horizontalStack=0;resizeParent=1;resizeParentMax=0;resizeLast=0;collapsible=1;marginBottom=0;html=1;" vertex="1" parent="XktvU1xeqBwV3OAODEVz-30">
          <mxGeometry x="15" y="40" width="140" height="190" as="geometry" />
        </mxCell>
        <mxCell id="XktvU1xeqBwV3OAODEVz-47" value="1.Clicking x open dialog" style="text;strokeColor=none;fillColor=none;align=left;verticalAlign=top;spacingLeft=4;spacingRight=4;overflow=hidden;rotatable=0;points=[[0,0.5],[1,0.5]];portConstraint=eastwest;whiteSpace=wrap;html=1;" vertex="1" parent="XktvU1xeqBwV3OAODEVz-46">
          <mxGeometry y="26" width="140" height="26" as="geometry" />
        </mxCell>
        <mxCell id="XktvU1xeqBwV3OAODEVz-48" value="2. Clicking column opens details of in a new tab" style="text;strokeColor=none;fillColor=none;align=left;verticalAlign=top;spacingLeft=4;spacingRight=4;overflow=hidden;rotatable=0;points=[[0,0.5],[1,0.5]];portConstraint=eastwest;whiteSpace=wrap;html=1;" vertex="1" parent="XktvU1xeqBwV3OAODEVz-46">
          <mxGeometry y="52" width="140" height="58" as="geometry" />
        </mxCell>
        <mxCell id="XktvU1xeqBwV3OAODEVz-50" value="&lt;meta charset=&quot;utf-8&quot;&gt;&lt;span style=&quot;color: rgb(0, 0, 0); font-family: Helvetica; font-size: 12px; font-style: normal; font-variant-ligatures: normal; font-variant-caps: normal; font-weight: 400; letter-spacing: normal; orphans: 2; text-align: left; text-indent: 0px; text-transform: none; widows: 2; word-spacing: 0px; -webkit-text-stroke-width: 0px; background-color: rgb(251, 251, 251); text-decoration-thickness: initial; text-decoration-style: initial; text-decoration-color: initial; float: none; display: inline !important;&quot;&gt;3. Open dialog should automatically update if some other user in organization add a new item&lt;/span&gt;" style="text;strokeColor=none;fillColor=none;align=left;verticalAlign=top;spacingLeft=4;spacingRight=4;overflow=hidden;rotatable=0;points=[[0,0.5],[1,0.5]];portConstraint=eastwest;whiteSpace=wrap;html=1;" vertex="1" parent="XktvU1xeqBwV3OAODEVz-46">
          <mxGeometry y="110" width="140" height="80" as="geometry" />
        </mxCell>
        <mxCell id="XktvU1xeqBwV3OAODEVz-6" value="" style="endArrow=none;html=1;rounded=0;" edge="1" parent="1" source="XktvU1xeqBwV3OAODEVz-1" target="XktvU1xeqBwV3OAODEVz-1">
          <mxGeometry width="50" height="50" relative="1" as="geometry">
            <mxPoint x="390" y="490" as="sourcePoint" />
            <mxPoint x="440" y="440" as="targetPoint" />
          </mxGeometry>
        </mxCell>
        <mxCell id="XktvU1xeqBwV3OAODEVz-14" value="" style="endArrow=none;html=1;rounded=0;exitX=0.586;exitY=0.017;exitDx=0;exitDy=0;exitPerimeter=0;" edge="1" parent="1" source="XktvU1xeqBwV3OAODEVz-10">
          <mxGeometry width="50" height="50" relative="1" as="geometry">
            <mxPoint x="130" y="330" as="sourcePoint" />
            <mxPoint x="240" y="260" as="targetPoint" />
            <Array as="points">
              <mxPoint x="320" y="280" />
              <mxPoint x="240" y="280" />
            </Array>
          </mxGeometry>
        </mxCell>
        <mxCell id="XktvU1xeqBwV3OAODEVz-15" value="" style="endArrow=none;html=1;rounded=0;" edge="1" parent="1">
          <mxGeometry width="50" height="50" relative="1" as="geometry">
            <mxPoint x="480" y="320" as="sourcePoint" />
            <mxPoint x="240" y="260" as="targetPoint" />
            <Array as="points">
              <mxPoint x="480" y="280" />
              <mxPoint x="240" y="280" />
            </Array>
          </mxGeometry>
        </mxCell>
        <mxCell id="XktvU1xeqBwV3OAODEVz-16" value="" style="endArrow=none;html=1;rounded=0;exitX=0.456;exitY=-0.033;exitDx=0;exitDy=0;exitPerimeter=0;" edge="1" parent="1" source="XktvU1xeqBwV3OAODEVz-11">
          <mxGeometry width="50" height="50" relative="1" as="geometry">
            <mxPoint x="490" y="330" as="sourcePoint" />
            <mxPoint x="240" y="260" as="targetPoint" />
            <Array as="points">
              <mxPoint x="680" y="280" />
              <mxPoint x="240" y="280" />
            </Array>
          </mxGeometry>
        </mxCell>
      </root>
    </mxGraphModel>
  </diagram>
</mxfile>
